<?xml version="1.0" encoding="UTF-8"?> <svg xmlns="http://www.w3.org/2000/svg" xmlns:xlink="http://www.w3.org/1999/xlink" width="23px" height="25px" viewBox="0 0 23 25" version="1.1"><title>102E6646-0EFD-48C0-B4C9-852642ACF956@2x</title><defs><filter id="filter-1"><feColorMatrix in="SourceGraphic" type="matrix" values="0 0 0 0 0.113725 0 0 0 0 0.121569 0 0 0 0 0.156863 0 0 0 1.000000 0"></feColorMatrix></filter></defs><g id="Symbols" stroke="none" stroke-width="1" fill="none" fill-rule="evenodd"><g id="Icon-User" transform="translate(-1.000000, 1.000000)" filter="url(#filter-1)"><g transform="translate(2.000000, 0.000000)"><path d="M15.1578947,14.4850309 C18.3795558,14.4850309 21.0081722,17.0241567 21.1517206,20.210385 L21.1578947,20.4850309 L21.1578947,23.0113467 C21.1578947,23.5345638 20.7337434,23.9587151 20.2105263,23.9587151 C19.7309106,23.9587151 19.3345377,23.6023102 19.2718063,23.139899 L19.2631579,23.0113467 L19.2631579,20.4850309 C19.2631579,18.2959385 17.5497413,16.507036 15.3908512,16.3862664 L15.1578947,16.3797677 L5.05263158,16.3797677 C2.86353921,16.3797677 1.07463672,18.0931843 0.953867102,20.2520744 L0.947368421,20.4850309 L0.947368421,23.0113467 C0.947368421,23.5345638 0.523217131,23.9587151 -2.22044605e-16,23.9587151 C-0.479615704,23.9587151 -0.875988582,23.6023102 -0.938720064,23.139899 L-0.947368421,23.0113467 L-0.947368421,20.4850309 C-0.947368421,17.2633699 1.59175742,14.6347534 4.77798569,14.491205 L5.05263158,14.4850309 L15.1578947,14.4850309 Z" id="Path" fill="#16004A" fill-rule="nonzero"></path><path d="M10.1052632,-0.67286384 C6.79155466,-0.67286384 4.10526316,2.01342766 4.10526316,5.32713616 C4.10526316,8.64084466 6.79155466,11.3271362 10.1052632,11.3271362 C13.4189717,11.3271362 16.1052632,8.64084466 16.1052632,5.32713616 C16.1052632,2.01342766 13.4189717,-0.67286384 10.1052632,-0.67286384 Z M10.1052632,1.221873 C12.3725374,1.221873 14.2105263,3.05986192 14.2105263,5.32713616 C14.2105263,7.5944104 12.3725374,9.43239932 10.1052632,9.43239932 C7.83798892,9.43239932 6,7.5944104 6,5.32713616 C6,3.05986192 7.83798892,1.221873 10.1052632,1.221873 Z" id="Oval" fill="#1D1F28" fill-rule="nonzero"></path></g></g></g></svg> 