<?xml version="1.0" encoding="UTF-8"?> <svg xmlns="http://www.w3.org/2000/svg" xmlns:xlink="http://www.w3.org/1999/xlink" width="22px" height="26px" viewBox="0 0 22 26" version="1.1"><title>9AE10C36-70E4-484E-9766-757C4288EEC0@2x</title><defs><filter id="filter-1"><feColorMatrix in="SourceGraphic" type="matrix" values="0 0 0 0 0.113725 0 0 0 0 0.121569 0 0 0 0 0.156863 0 0 0 1.000000 0"></feColorMatrix></filter></defs><g id="Symbols" stroke="none" stroke-width="1" fill="none" fill-rule="evenodd"><g id="Icon-Shopping" transform="translate(-1.000000, 1.000000)" filter="url(#filter-1)"><g transform="translate(2.000000, 0.000000)"><path d="M16,-0.551062753 L3.2,-0.551062753 C2.90669164,-0.551062753 2.63178285,-0.40813545 2.46329898,-0.168045927 L-0.736701023,4.39195407 C-0.842979097,4.54340033 -0.9,4.72392104 -0.9,4.90893725 L-0.9,20.8689372 C-0.9,22.6123206 0.444202685,24.0489372 2.13333333,24.0489372 L17.0666667,24.0489372 C18.7557973,24.0489372 20.1,22.6123206 20.1,20.8689372 L20.1,4.90893725 C20.1,4.72392104 20.0429791,4.54340033 19.936701,4.39195407 L16.736701,-0.168045927 C16.5682171,-0.40813545 16.2933084,-0.551062753 16,-0.551062753 Z M15.5316,1.248 L18.3,5.1924 L18.3,20.8689372 C18.3,21.6439723 17.733951,22.2489372 17.0666667,22.2489372 L2.13333333,22.2489372 L2.001364,22.2409999 C1.39309162,22.1675194 0.9,21.5923033 0.9,20.8689372 L0.9,5.1912 L3.6672,1.248 L15.5316,1.248 Z" id="Path" fill="#1D1F28" fill-rule="nonzero"></path><path d="M19.2,4.84893725 C19.6970563,4.84893725 20.1,5.25188097 20.1,5.74893725 C20.1,6.20457217 19.7614153,6.5811264 19.3221247,6.64072131 L19.2,6.64893725 L-1.11022302e-16,6.64893725 C-0.497056275,6.64893725 -0.9,6.24599352 -0.9,5.74893725 C-0.9,5.29330233 -0.561415342,4.91674809 -0.122124669,4.85715319 L-1.11022302e-16,4.84893725 L19.2,4.84893725 Z" id="Path" fill="#1D1F28" fill-rule="nonzero"></path><path d="M14.4,9.04893725 C14.8970563,9.04893725 15.3,9.45188097 15.3,9.94893725 C15.3,13.0722148 13.0453678,15.6489372 10.2,15.6489372 C7.35463218,15.6489372 5.1,13.0722148 5.1,9.94893725 C5.1,9.45188097 5.50294373,9.04893725 6,9.04893725 C6.49705627,9.04893725 6.9,9.45188097 6.9,9.94893725 C6.9,12.1275933 8.40617592,13.8489372 10.2,13.8489372 C11.9938241,13.8489372 13.5,12.1275933 13.5,9.94893725 C13.5,9.45188097 13.9029437,9.04893725 14.4,9.04893725 Z" id="Path" fill="#1D1F28" fill-rule="nonzero"></path></g></g></g></svg> 